HIERARCHY
ROOT Hips
{
	OFFSET 0.00000 0.00000 0.00000
	CHANNELS 6 Xposition Yposition Zposition Zrotation Yrotation Xrotation 
	JOINT LHipJoint
	{
		OFFSET 0 0 0
		CHANNELS 3 Zrotation Yrotation Xrotation
		JOINT LeftUpLeg
		{
			OFFSET 1.36337 -1.57426 1.11036
			CHANNELS 3 Zrotation Yrotation Xrotation
			JOINT LeftLeg
			{
				OFFSET 2.38468 -6.55187 0.00000
				CHANNELS 3 Zrotation Yrotation Xrotation
				JOINT LeftFoot
				{
					OFFSET 2.37166 -6.51609 0.00000
					CHANNELS 3 Zrotation Yrotation Xrotation
					JOINT LeftToeBase
					{
						OFFSET 0.29078 -0.79891 2.01393
						CHANNELS 3 Zrotation Yrotation Xrotation
						End Site
						{
							OFFSET 0.00000 -0.00000 1.07924
						}
					}
				}
			}
		}
	}
	JOINT RHipJoint
	{
		OFFSET 0 0 0
		CHANNELS 3 Zrotation Yrotation Xrotation
		JOINT RightUpLeg
		{
			OFFSET -1.36349 -1.57426 1.11036
			CHANNELS 3 Zrotation Yrotation Xrotation
			JOINT RightLeg
			{
				OFFSET -2.29562 -6.30717 0.00000
				CHANNELS 3 Zrotation Yrotation Xrotation
				JOINT RightFoot
				{
					OFFSET -2.40985 -6.62100 0.00000
					CHANNELS 3 Zrotation Yrotation Xrotation
					JOINT RightToeBase
					{
						OFFSET -0.23197 -0.63733 1.92232
						CHANNELS 3 Zrotation Yrotation Xrotation
						End Site
						{
							OFFSET -0.00000 -0.00000 1.01562
						}
					}
				}
			}
		}
	}
	JOINT LowerBack
	{
		OFFSET 0 0 0
		CHANNELS 3 Zrotation Yrotation Xrotation
		JOINT Spine
		{
			OFFSET -0.08565 2.03602 -0.24562
			CHANNELS 3 Zrotation Yrotation Xrotation
			JOINT Spine1
			{
				OFFSET -0.00036 2.05693 0.00216
				CHANNELS 3 Zrotation Yrotation Xrotation
				JOINT Neck
				{
					OFFSET 0 0 0
					CHANNELS 3 Zrotation Yrotation Xrotation
					JOINT Neck1
					{
						OFFSET -0.03664 1.69515 0.31789
						CHANNELS 3 Zrotation Yrotation Xrotation
						JOINT Head
						{
							OFFSET 0.00932 1.70181 -0.46013
							CHANNELS 3 Zrotation Yrotation Xrotation
							End Site
							{
								OFFSET 0.01243 1.77620 -0.19377
							}
						}
					}
				}
				JOINT LeftShoulder
				{
					OFFSET 0 0 0
					CHANNELS 3 Zrotation Yrotation Xrotation
					JOINT LeftArm
					{
						OFFSET 3.74344 0.81315 -0.36647
						CHANNELS 3 Zrotation Yrotation Xrotation
						JOINT LeftForeArm
						{
							OFFSET 4.97185 -0.00000 -0.00000
							CHANNELS 3 Zrotation Yrotation Xrotation
							JOINT LeftHand
							{
								OFFSET 3.35811 -0.00000 0.00000
								CHANNELS 3 Zrotation Yrotation Xrotation
								JOINT LeftFingerBase
								{
									OFFSET 0 0 0
									CHANNELS 3 Zrotation Yrotation Xrotation
									JOINT LeftHandIndex1
									{
										OFFSET 0.62278 -0.00000 0.00000
										CHANNELS 3 Zrotation Yrotation Xrotation
										End Site
										{
											OFFSET 0.50210 -0.00000 0.00000
										}
									}
								}
								JOINT LThumb
								{
									OFFSET 0 0 0
									CHANNELS 3 Zrotation Yrotation Xrotation
									End Site
									{
										OFFSET 0.50976 -0.00000 0.50976
									}
								}
							}
						}
					}
				}
				JOINT RightShoulder
				{
					OFFSET 0 0 0
					CHANNELS 3 Zrotation Yrotation Xrotation
					JOINT RightArm
					{
						OFFSET -3.75385 0.50666 -0.06525
						CHANNELS 3 Zrotation Yrotation Xrotation
						JOINT RightForeArm
						{
							OFFSET -4.96493 -0.00000 -0.00000
							CHANNELS 3 Zrotation Yrotation Xrotation
							JOINT RightHand
							{
								OFFSET -3.34929 -0.00000 0.00000
								CHANNELS 3 Zrotation Yrotation Xrotation
								JOINT RightFingerBase
								{
									OFFSET 0 0 0
									CHANNELS 3 Zrotation Yrotation Xrotation
									JOINT RightHandIndex1
									{
										OFFSET -0.63804 -0.00000 0.00000
										CHANNELS 3 Zrotation Yrotation Xrotation
										End Site
										{
											OFFSET -0.51441 -0.00000 0.00000
										}
									}
								}
								JOINT RThumb
								{
									OFFSET 0 0 0
									CHANNELS 3 Zrotation Yrotation Xrotation
									End Site
									{
										OFFSET -0.52226 -0.00000 0.52226
									}
								}
							}
						}
					}
				}
			}
		}
	}
}
MOTION
Frames: 10
Frame Time: .0083333
-3.0039 10.9707 1.1969 -161.9250 -28.2398 211.5230 0.0000 0.0000 0.0000 -11.2948 17.2423 -88.0039 32.5136 15.7282 129.3092 0.7389 -18.4039 -18.8189 0.1033 -2.0724 -5.7057 0.0000 0.0000 0.0000 9.2511 -25.0213 -79.7477 -24.3785 -19.5340 102.8981 0.5534 19.8629 -8.7727 -2.1337 9.1392 -26.2318 0.2025 4.9197 58.3238 -0.6876 -0.1230 14.0422 -0.6073 -1.8832 -5.5732 0.9851 -2.1671 -37.2156 16.2548 -9.3146 20.2321 4.3497 -1.7748 14.0108 0.0000 0.0000 0.0000 20.3545 -53.0621 -82.8500 8.4559 -14.2891 -1.0618 -0.0000 -0.0000 9.8929 67.1932 -19.0981 -37.8861 -7.1250 0.0000 -0.0000 22.7616 -9.0405 -28.1945 0.0000 0.0000 0.0000 112.6870 76.5953 84.8444 -25.3838 36.5937 -8.5177 0.0000 -0.0000 -21.7891 -39.8077 -40.4162 28.3833 7.1250 -0.0000 -0.0000 -8.4588 -77.8099 6.4899
-2.8026 10.9399 1.2018 -162.5540 -29.1266 211.2730 0.0000 0.0000 0.0000 -10.4309 17.2718 -87.8399 32.5825 15.6736 129.5637 0.6793 -19.4820 -18.9124 0.2269 -3.0658 -8.4621 0.0000 0.0000 0.0000 8.7996 -25.6036 -79.7470 -24.9395 -19.4047 104.5810 0.6812 21.0286 -8.6844 -1.9273 8.7130 -24.9015 0.4912 4.4764 58.3795 -0.7283 -0.4013 13.9690 -0.6616 -1.9784 -5.6619 1.1447 -2.3460 -37.2347 16.3903 -9.6943 20.1878 4.2896 -1.9096 14.0438 -0.0000 -0.0000 0.0000 21.7917 -52.6939 -86.8605 7.7213 -13.1002 -0.8879 -0.0000 -0.0000 14.4237 66.0653 -18.0921 -34.9783 -7.1250 0.0000 -0.0000 22.4482 -6.3705 -26.8405 -0.0000 -0.0000 0.0000 114.3765 76.6321 86.9407 -24.8666 36.0674 -8.2113 0.0000 -0.0000 -22.1998 -40.0261 -40.0795 28.4025 7.1250 -0.0000 -0.0000 -9.2552 -77.5357 7.0503
-2.5871 10.8955 1.2176 -163.6550 -29.8767 211.5800 0.0000 0.0000 0.0000 -9.9945 16.8565 -88.1435 32.6699 15.6037 129.8880 0.6664 -20.3864 -19.2770 0.3960 -4.0405 -11.1906 0.0000 0.0000 0.0000 7.8876 -26.1660 -80.3483 -25.5388 -19.2480 106.3919 0.8481 22.0748 -8.1503 -1.6732 8.1494 -23.1688 0.5996 3.8315 57.7552 -1.0918 -1.0203 14.0889 -0.8582 -2.1924 -5.5180 1.0352 -2.4968 -37.3800 17.0039 -10.1214 20.2495 4.4683 -2.0205 14.2144 0.0000 0.0000 0.0000 23.3505 -51.9081 -91.1513 6.9938 -11.9091 -0.7304 -0.0000 -0.0000 19.9165 64.4213 -16.2797 -30.3553 -7.1250 0.0000 -0.0000 22.1047 -1.9958 -24.7558 0.0000 0.0000 0.0000 118.4998 76.4449 90.7726 -24.3010 35.4809 -7.8806 0.0000 -0.0000 -22.2820 -40.3832 -39.9561 28.6447 7.1250 -0.0000 -0.0000 -10.2101 -77.5305 7.7791
-2.3554 10.8052 1.2556 -165.2530 -30.4926 213.1020 0.0000 0.0000 0.0000 -10.3663 16.0788 -90.0903 32.8434 15.4624 130.5358 0.7070 -20.9109 -19.8163 0.5629 -4.8056 -13.3549 0.0000 0.0000 0.0000 6.8468 -26.7948 -82.7346 -26.2875 -19.0245 108.6756 0.9871 22.7728 -7.5560 -1.5250 7.7974 -22.1004 -0.2637 4.0009 55.8652 -0.4868 -0.8966 14.1039 0.1219 -2.1301 -5.3788 0.9218 -2.8783 -37.1153 16.6332 -10.3667 20.1861 4.2700 -2.1799 14.1271 -0.0000 -0.0000 0.0000 24.3858 -52.2678 -98.9774 6.1155 -10.4546 -0.5600 -0.0000 -0.0000 28.9185 63.0987 -15.4010 -27.6294 -7.1250 0.0000 -0.0000 21.6675 0.4797 -23.2174 -0.0000 -0.0000 0.0000 116.8950 76.3777 89.7880 -23.9637 35.1259 -7.6857 0.0000 -0.0000 -22.5577 -41.2186 -40.3852 29.5786 7.1250 -0.0000 -0.0000 -12.0418 -78.2662 9.3635
-2.1159 10.7169 1.2891 -166.2160 -30.9882 214.1210 0.0000 0.0000 0.0000 -10.1250 16.3331 -92.0142 33.0524 15.2876 131.3242 0.7272 -21.7226 -20.3637 1.5199 -7.7848 -22.0624 0.0000 0.0000 0.0000 6.2744 -26.8010 -84.6847 -27.0208 -18.7746 110.9391 1.0033 23.3562 -8.1339 -1.6604 8.1197 -23.0782 -0.3465 3.5844 54.2432 -0.8930 -1.1799 14.0766 -0.1746 -2.1568 -5.3005 1.1193 -3.1429 -36.8340 16.8279 -10.9528 20.4802 4.1904 -2.3779 14.2806 0.0000 -0.0000 0.0000 25.6371 -51.9267 -103.6901 5.5691 -9.5416 -0.4652 -0.0000 -0.0000 35.3904 60.8841 -14.7134 -24.5140 -7.1250 0.0000 -0.0000 20.6922 3.1175 -20.9758 0.0000 -0.0000 0.0000 117.8419 75.7111 90.2820 -23.9726 35.1352 -7.6908 0.0000 -0.0000 -22.8214 -42.1628 -41.1493 30.7899 7.1250 -0.0000 -0.0000 -14.2053 -79.3838 11.3780
-1.8809 10.6226 1.3266 -167.0920 -31.4918 215.2420 0.0000 0.0000 0.0000 -9.6629 16.2055 -94.0882 33.2855 15.0866 132.2141 0.7320 -22.2941 -20.6917 2.4094 -9.6712 -27.9184 0.0000 0.0000 0.0000 5.9819 -26.8427 -86.9053 -27.7307 -18.5022 113.1600 0.9075 23.7289 -9.5133 -2.0462 8.9616 -25.6754 -0.6925 3.5112 52.2852 -0.7585 -1.1326 14.1291 0.0957 -2.0874 -5.0553 1.0802 -3.7767 -37.0210 16.2493 -11.8087 21.7474 3.8172 -2.6870 14.8927 -0.0000 -0.0000 0.0000 26.6441 -51.9271 -110.1774 5.0644 -8.6930 -0.3852 -0.0000 -0.0000 43.3392 57.1408 -13.2617 -19.5526 -7.1250 0.0000 -0.0000 19.0486 7.5036 -17.4155 -0.0000 -0.0000 0.0000 118.4552 75.5068 91.0175 -23.7018 34.8473 -7.5355 0.0000 -0.0000 -23.0070 -42.1113 -41.3391 30.8396 7.1250 -0.0000 -0.0000 -13.9470 -79.5642 11.2205
-1.6464 10.5103 1.3720 -168.3730 -31.6646 216.8350 0.0000 0.0000 0.0000 -9.9181 15.8255 -96.6245 33.5384 14.8612 133.1928 0.6672 -22.1747 -20.2174 2.5838 -9.9887 -28.9402 0.0000 0.0000 0.0000 5.4354 -27.2093 -89.9206 -28.4629 -18.1881 115.4860 0.7908 23.9148 -10.7726 -2.4413 9.7304 -28.1080 -1.4591 3.5802 49.8314 -0.6558 -1.0999 14.3034 0.5275 -2.0370 -4.5682 1.1854 -3.9218 -36.9498 16.6458 -12.1216 21.2084 3.8632 -2.8084 14.7183 0.0000 -0.0000 0.0000 28.0516 -52.0017 -112.7134 4.5390 -7.8050 -0.3098 -0.0000 -0.0000 47.1717 53.1071 -11.4815 -14.8519 -7.1250 0.0000 -0.0000 17.1815 11.8867 -13.9310 0.0000 -0.0000 0.0000 118.5551 75.4547 91.1871 -23.3685 34.4893 -7.3459 0.0000 -0.0000 -22.9130 -42.6608 -40.9002 31.1047 7.1250 -0.0000 -0.0000 -15.7873 -79.2892 12.6236
-1.4148 10.4064 1.4086 -169.3050 -31.7416 217.5910 0.0000 0.0000 0.0000 -10.5716 16.5850 -98.8165 33.7949 14.6242 134.2006 1.4056 -18.5319 -23.2712 2.8276 -10.4107 -30.3171 0.0000 0.0000 0.0000 5.0619 -27.4956 -92.1699 -29.1568 -17.8575 117.7286 0.6320 24.1151 -12.3153 -2.9019 10.5345 -30.7256 -1.8238 3.5007 47.3262 -0.9660 -1.2083 15.3931 0.4772 -2.0517 -4.1609 0.8111 -4.0359 -36.6292 16.9725 -12.0374 20.5730 4.0487 -2.8271 14.4309 0.0000 -0.0000 0.0000 28.6728 -51.8786 -114.2680 4.6878 -8.0570 -0.3303 -0.0000 -0.0000 50.3948 48.4730 -10.3377 -11.4552 -7.1250 0.0000 -0.0000 14.5824 14.9239 -10.6928 0.0000 -0.0000 0.0000 119.8457 75.4024 92.1869 -23.1048 34.2032 -7.1971 0.0000 -0.0000 -22.8619 -42.7704 -40.4330 30.9616 7.1250 -0.0000 -0.0000 -16.2785 -78.8358 12.8705
-1.1863 10.2925 1.4518 -169.8430 -32.1639 218.2240 0.0000 0.0000 0.0000 -11.3283 17.3331 -101.5447 34.0728 14.3574 135.3113 1.9429 -14.8177 -25.5836 3.0129 -10.7159 -31.3276 0.0000 0.0000 0.0000 4.4627 -27.8292 -93.7524 -29.7650 -17.5399 119.7290 1.2332 26.2964 -9.6428 -2.1321 9.1360 -26.2218 -2.2521 3.6405 45.8483 -0.4757 -0.9437 15.3196 1.0966 -1.9299 -3.8921 0.4701 -4.4443 -36.5001 16.6780 -12.2573 20.5782 3.9319 -2.9748 14.4115 0.0000 -0.0000 0.0000 28.4605 -52.0775 -115.8588 4.9677 -8.5300 -0.3707 -0.0000 -0.0000 53.2165 44.9173 -8.4781 -8.3630 -7.1250 0.0000 -0.0000 12.6511 18.2525 -8.2559 0.0000 -0.0000 0.0000 121.3942 75.0926 93.4283 -22.4645 33.4980 -6.8404 0.0000 -0.0000 -22.0182 -43.3517 -40.2571 31.3860 7.1250 -0.0000 -0.0000 -18.0134 -78.8393 14.2564
-0.9630 10.1690 1.5069 -170.7180 -32.5186 219.1760 0.0000 0.0000 0.0000 -12.1375 17.4139 -104.2961 34.3448 14.0857 136.4184 2.1256 -13.2215 -26.4390 3.1731 -10.9702 -32.1794 0.0000 0.0000 0.0000 3.8596 -28.5871 -95.9168 -30.3824 -17.1892 121.7974 1.7208 27.7509 -7.2457 -1.6210 8.0274 -22.7974 -2.4406 3.4604 43.9321 -0.4618 -1.0005 15.4372 1.2057 -1.9285 -3.2810 0.2332 -4.7015 -36.3151 16.7726 -12.4556 20.3826 3.9535 -3.0840 14.3380 -0.0000 0.0000 0.0000 28.7574 -51.8913 -117.5224 5.2308 -8.9733 -0.4107 -0.0000 -0.0000 56.1209 44.3041 -5.0308 -4.8918 -7.1250 0.0000 -0.0000 12.9092 23.0044 -7.0116 -0.0000 0.0000 0.0000 121.6959 75.0292 93.8531 -22.4706 33.5048 -6.8438 0.0000 -0.0000 -22.0900 -44.4431 -40.6632 32.5813 7.1250 -0.0000 -0.0000 -21.3470 -79.6076 17.2544
